<svg xmlns="http://www.w3.org/2000/svg" viewBox="0 0 50 50" width="50mm" height="50mm" clip-rule="evenodd" fill-rule="evenodd" image-rendering="optimizeQuality" shape-rendering="geometricPrecision">
  <defs>
    <linearGradient id="bA-body" gradientUnits="userSpaceOnUse" x1="10" y1="8" x2="42" y2="47">
      <stop offset="0" stop-color="#484c5c"/>
      <stop offset="1" stop-color="#1c1e28"/>
    </linearGradient>
    <linearGradient id="bA-bow" gradientUnits="userSpaceOnUse" x1="14" y1="4" x2="36" y2="22">
      <stop offset="0" stop-color="#fbbf24"/>
      <stop offset="0.5" stop-color="#d97706"/>
      <stop offset="1" stop-color="#78350f"/>
    </linearGradient>
    <linearGradient id="bA-shimmer" gradientUnits="userSpaceOnUse" x1="10" y1="8" x2="42" y2="47">
      <stop offset="0" stop-color="#fff" stop-opacity="0.18"/>
      <stop offset="1" stop-color="#fff" stop-opacity="0"/>
    </linearGradient>
  </defs>

  <!-- === QUEEN BODY DARK OUTLINE (Merida-style) === -->
  <path d="M44.541 14.723c-.94 0-1.744-.33-2.404-.982-.66-.652-.991-1.448-.991-2.396 0-.923.33-1.719.99-2.388.66-.677 1.465-1.007 2.405-1.007.931 0 1.727.33 2.388 1.007.66.67.99 1.465.99 2.388 0 .948-.33 1.744-.99 2.396a3.28 3.28 0 0 1-2.388.982zm-4.31 29.219c-.812.71-2.633 1.304-5.46 1.786-2.828.474-6.088.72-9.771.72-3.75 0-7.053-.254-9.898-.745-2.844-.5-4.64-1.118-5.384-1.863l1.566-5.952-.694-3.895L8.405 30.2 6.297 14.774l1.21-.474 6.8 11.455.152-13.64 1.685-.296 5.182 13.716 2.776-14.757h1.72l2.776 14.706L33.73 11.82l1.71.296.153 13.64 6.824-11.48 1.16.541-2.058 15.359-2.21 3.793-.694 3.945zM14.535 11.989c-.948 0-1.752-.322-2.413-.974-.66-.652-.99-1.456-.99-2.396 0-.923.33-1.719.99-2.38s1.465-.99 2.413-.99c.923 0 1.719.33 2.38.99s.99 1.457.99 2.38c0 .94-.33 1.744-.99 2.396a3.266 3.266 0 0 1-2.38.974zm20.828 0c-.94 0-1.736-.322-2.387-.974-.652-.652-.982-1.456-.982-2.396 0-.923.33-1.719.982-2.38s1.447-.99 2.387-.99c.948 0 1.753.33 2.413.99s.99 1.457.99 2.38c0 .94-.33 1.744-.99 2.396-.66.652-1.465.974-2.413.974zM5.4 14.723c-.94 0-1.736-.33-2.388-.982-.652-.652-.982-1.448-.982-2.396 0-.923.33-1.719.982-2.388C3.664 8.28 4.46 7.95 5.4 7.95c.948 0 1.744.33 2.413 1.007.66.67.99 1.465.99 2.388 0 .948-.33 1.744-.99 2.396a3.323 3.323 0 0 1-2.413.982zm39.141 0c-.94 0-1.744-.33-2.404-.982-.66-.652-.991-1.448-.991-2.396 0-.923.33-1.719.99-2.388.66-.677 1.465-1.007 2.405-1.007.931 0 1.727.33 2.388 1.007.66.67.99 1.465.99 2.388 0 .948-.33 1.744-.99 2.396a3.28 3.28 0 0 1-2.388.982z" fill="#1f1a17"/>

  <!-- === QUEEN BODY DARK FILL === -->
  <path d="M37.2 35.73c-3.04-.84-7.095-1.262-12.15-1.262-5.096 0-9.194.431-12.301 1.286l.372 2.507c3.124-.813 7.095-1.22 11.93-1.22 4.809 0 8.729.398 11.752 1.194zm1.736-4.437c-1.372-.5-3.302-.906-5.791-1.228-2.49-.322-5.233-.483-8.247-.483-2.946 0-5.638.153-8.085.458-2.447.304-4.378.702-5.783 1.202l1.245 2.252c1.388-.406 3.191-.703 5.41-.89 2.21-.177 4.631-.27 7.264-.27s5.063.093 7.29.27c2.235.187 4.047.492 5.436.915zm-1.092 11.853l-.737-2.93c-3.226-.736-7.281-1.109-12.158-1.109-4.826 0-8.864.373-12.107 1.11l-.788 2.954c3.142-.956 7.443-1.44 12.92-1.44 2.625 0 5.072.136 7.316.399 2.252.262 4.106.601 5.554 1.016z" fill="url(#bA-body)"/>

  <!-- === SHIMMER OVERLAY === -->
  <path d="M37.2 35.73c-3.04-.84-7.095-1.262-12.15-1.262-5.096 0-9.194.431-12.301 1.286l.372 2.507c3.124-.813 7.095-1.22 11.93-1.22 4.809 0 8.729.398 11.752 1.194zm1.736-4.437c-1.372-.5-3.302-.906-5.791-1.228-2.49-.322-5.233-.483-8.247-.483-2.946 0-5.638.153-8.085.458-2.447.304-4.378.702-5.783 1.202l1.245 2.252c1.388-.406 3.191-.703 5.41-.89 2.21-.177 4.631-.27 7.264-.27s5.063.093 7.29.27c2.235.187 4.047.492 5.436.915zm-1.092 11.853l-.737-2.93c-3.226-.736-7.281-1.109-12.158-1.109-4.826 0-8.864.373-12.107 1.11l-.788 2.954c3.142-.956 7.443-1.44 12.92-1.44 2.625 0 5.072.136 7.316.399 2.252.262 4.106.601 5.554 1.016z" fill="url(#bA-shimmer)"/>

  <!-- === BOW (drawn longbow across the crown) === -->
  <!-- Bow stave — amber arc -->
  <path d="M 13 19 C 14 10 19 5.5 25 4.5 C 31 5.5 36 10 37 19"
        fill="none" stroke="url(#bA-bow)" stroke-width="2.2" stroke-linecap="round"/>
  <!-- Bow string — taut, pulled back at centre -->
  <path d="M 13 19 L 25 13 L 37 19"
        fill="none" stroke="#78350f" stroke-width="0.9" stroke-linecap="round" stroke-linejoin="round" opacity="0.9"/>
  <!-- Arrow shaft -->
  <line x1="7" y1="13.5" x2="40" y2="13.5" stroke="#78350f" stroke-width="0.9" stroke-linecap="round" opacity="0.85"/>
  <!-- Arrowhead (right) -->
  <polygon points="40,13.5 36.5,11.5 36.5,15.5" fill="#d97706"/>
  <!-- Arrow fletching (left) -->
  <path d="M7 13.5 L10 11 L9.5 13.5 L10 16 Z" fill="#d97706" opacity="0.85"/>
  <!-- Nock point -->
  <circle cx="25" cy="13" r="1.1" fill="#fbbf24" opacity="0.9"/>

</svg>
