<?xml version="1.0" encoding="UTF-8"?>
<svg xmlns="http://www.w3.org/2000/svg" viewBox="0 0 50 50" width="177.17" height="177.17">
  <defs>
    <linearGradient id="bA-body" x1="0" y1="0" x2="1" y2="1">
      <stop offset="0" stop-color="#444"/>
      <stop offset="1" stop-color="#1f1a17"/>
    </linearGradient>
    <linearGradient id="bA-shine" x1="0.2" y1="0" x2="0.8" y2="1">
      <stop offset="0" stop-color="#888" stop-opacity="0.6"/>
      <stop offset="1" stop-color="#555" stop-opacity="0"/>
    </linearGradient>
  </defs>
  <!-- Base platform -->
  <ellipse cx="25" cy="46" rx="14" ry="3" fill="#1f1a17"/>
  <ellipse cx="25" cy="46" rx="12.5" ry="2.2" fill="url(#bA-body)" stroke="#111" stroke-width="0.8"/>
  <!-- Pedestal -->
  <path d="M14 44 Q14 42 16 40 L18 38 Q18.5 37.5 19 37 L31 37 Q31.5 37.5 32 38 L34 40 Q36 42 36 44 Z"
        fill="url(#bA-body)" stroke="#111" stroke-width="0.8"/>
  <!-- Bishop body - tall tapered shape -->
  <path d="M20 37 Q19 34 19.5 30 L20 26 Q20 22 21 18 L22 15 Q23 12 24 10 L25 8.5 L26 10 Q27 12 28 15 L29 18 Q30 22 30 26 L30.5 30 Q31 34 30 37 Z"
        fill="url(#bA-body)" stroke="#111" stroke-width="0.8" stroke-linejoin="round"/>
  <!-- Bishop slit/cut -->
  <path d="M24.2 14 Q25 11 25.8 14" fill="none" stroke="#888" stroke-width="0.7"/>
  <ellipse cx="25" cy="15.5" rx="1.8" ry="3" fill="none" stroke="#888" stroke-width="0.6"/>
  <!-- Cross on top of bishop -->
  <rect x="24.2" y="4" width="1.6" height="5" rx="0.4" fill="#ddd"/>
  <rect x="22.8" y="5.5" width="4.4" height="1.5" rx="0.4" fill="#ddd"/>
  <!-- Knight head silhouette on the left side -->
  <g transform="translate(-2, 5) scale(0.55)">
    <path d="M18 32 Q16 30 14 27 Q12 24 11 22 Q10 20 10.5 18 Q11 16 13 14 Q14.5 12.5 16 12 Q17 11.5 18 12.5 Q18.5 13.5 17.5 14.5 Q15 16 14 18 Q13 20 14 22 Q15 24 17 26 L19 28 Q20 30 19 32 Z"
          fill="#ddd" opacity="0.9"/>
    <path d="M16 12 Q15 10 16 9 Q17 8 18 9 Q18.5 10 17.5 11.5 Z" fill="#ddd" opacity="0.9"/>
    <circle cx="15.5" cy="15" r="0.8" fill="#1f1a17"/>
  </g>
  <!-- Knight head silhouette on the right side (mirrored) -->
  <g transform="translate(52, 5) scale(-0.55, 0.55)">
    <path d="M18 32 Q16 30 14 27 Q12 24 11 22 Q10 20 10.5 18 Q11 16 13 14 Q14.5 12.5 16 12 Q17 11.5 18 12.5 Q18.5 13.5 17.5 14.5 Q15 16 14 18 Q13 20 14 22 Q15 24 17 26 L19 28 Q20 30 19 32 Z"
          fill="#ddd" opacity="0.9"/>
    <path d="M16 12 Q15 10 16 9 Q17 8 18 9 Q18.5 10 17.5 11.5 Z" fill="#ddd" opacity="0.9"/>
    <circle cx="15.5" cy="15" r="0.8" fill="#1f1a17"/>
  </g>
  <!-- Collar detail -->
  <path d="M19 37 Q25 35 31 37" fill="none" stroke="#888" stroke-width="0.6"/>
  <path d="M20 36 Q25 34.5 30 36" fill="none" stroke="#888" stroke-width="0.4"/>
  <!-- Shine highlight -->
  <path d="M23 12 Q24 10 24.5 12 L24 30 Q23.5 34 23.5 36 L22.5 36 Q22 34 22.5 30 Z"
        fill="url(#bA-shine)" opacity="0.3"/>
</svg>
