<svg xmlns="http://www.w3.org/2000/svg" viewBox="515 20 400 440" width="50mm" height="50mm" clip-rule="evenodd" fill-rule="evenodd">
<path d="M611.158 52.0932C624.545 51.1503 639.046 52.427 652.482 51.8757C666.853 51.286 664.083 62.7122 663.889 73.1517C676.104 73.4112 688.957 73.2285 701.221 73.2411C701.288 67.672 699.985 58.441 703.716 54.0269C705.081 52.4119 711.256 51.8691 713.539 51.881C729.632 51.9649 745.807 51.5544 761.885 52.0966C773.249 52.3932 770.749 64.8047 770.61 73.1398C782.782 73.4313 795.761 73.2213 807.993 73.2252C807.929 69.8924 807.883 66.5593 807.856 63.2261C807.859 59.9563 808.241 56.092 810.791 53.7203C813.83 50.8948 849.916 51.6364 856.146 51.961C858.924 52.1058 862.501 52.2507 864.43 54.4813C865.587 55.819 866.225 57.3543 866.452 59.1044C867.4 66.3836 866.683 74.6716 866.688 82.0475C866.695 91.8785 867.305 102.16 866.553 111.945C866.422 113.647 866.33 115.681 865.415 117.166C862.645 121.66 840.45 138.705 834.636 143.677C834.075 184.214 834.594 226.293 834.597 266.95L834.545 297.88C834.536 300.949 834.289 313.52 835.056 315.812C836.82 321.079 843.756 331.52 846.872 336.588C849.981 337.374 855.168 338.956 855.471 342.767C856.419 354.685 855.973 367.653 855.927 379.615C862.505 379.819 879.814 378.272 885.126 381.67C886.933 383.265 888.19 388.872 887.968 390.907C887.284 397.202 889.834 420.871 885.803 425.016C884.516 426.348 882.85 427.251 881.031 427.602C878.3 428.102 864.877 427.89 861.419 427.887L818.672 427.85L665.205 427.856L616.951 427.866C573.728 427.902 585.941 429.641 583.976 389.941C583.247 375.213 606.086 379.626 615.94 379.733L615.994 342.929C608.265 342.283 605.056 339.169 602.845 331.768C580.469 334.053 562.479 331.557 555.002 306.271C551.976 296.038 550.44 280.506 554.029 270.245C562.729 245.372 576.026 221.446 588.735 198.335C586.468 198.413 583.569 198.239 581.255 198.165L581.269 190.947L573.776 190.813L573.759 183.527C571.473 183.53 568.572 183.276 566.243 183.139L566.269 175.951L558.782 175.821L558.845 145.826C578.429 145.349 600.159 145.775 619.878 145.784C622.633 142.53 625.298 139.201 627.871 135.801C620.946 130.139 613.042 124.237 606.882 117.758C605.277 116.07 605.255 111.16 605.246 108.768C605.198 96.2093 605.236 83.6232 605.242 71.0628C605.252 66.5215 605.005 61.3102 605.7 56.8509C607.51 54.0887 608.121 53.3652 611.158 52.0932Z"/>
<path fill="#FBFBFB" d="M566.258 153.288L695.246 153.292C717.045 153.292 739.511 153.005 761.263 153.314L761.273 160.763L716.288 160.77L716.275 175.748L708.744 175.755L708.741 183.302L701.297 183.302L701.257 190.765L663.725 190.772L663.724 183.294L656.263 183.289L656.262 175.768L648.73 175.738L648.719 160.76L641.29 160.753L641.267 175.757L633.759 175.755L633.734 183.302L626.299 183.283L626.252 190.769L588.731 190.75L588.705 183.32L581.255 183.283L581.271 175.764L573.727 175.751L573.726 168.29L566.272 168.283L566.258 153.288Z"/>
<path d="M686.29 160.753L693.714 160.756L693.723 168.287L701.268 168.283L701.27 175.766L693.734 175.772L693.711 183.286L686.259 183.287L686.279 175.763L678.735 175.77L678.761 168.286L686.273 168.283L686.29 160.753Z"/>
<path d="M678.761 168.286L686.273 168.283L686.279 175.763L678.735 175.77L678.761 168.286Z"/>
<path d="M686.279 175.763L693.734 175.772L693.711 183.286L686.259 183.287L686.279 175.763Z"/>
<path d="M686.29 160.753L693.714 160.756L693.723 168.287L686.273 168.283L686.29 160.753Z"/>
<path fill="#FBFBFB" d="M686.273 168.283L693.723 168.287L693.734 175.772L686.279 175.763L686.273 168.283Z"/>
<path d="M611.312 160.765L618.748 160.758L618.724 168.286L626.272 168.278L626.265 175.768L618.732 175.768L618.722 183.291L611.271 183.285L611.276 175.748L603.737 175.756L603.753 168.298L611.264 168.297L611.312 160.765Z"/>
<path d="M611.276 175.748L618.732 175.768L618.722 183.291L611.271 183.285L611.276 175.748Z"/>
<path d="M611.264 168.297L611.276 175.748L603.737 175.756L603.753 168.298L611.264 168.297Z"/>
<path d="M611.312 160.765L618.748 160.758L618.724 168.286L611.264 168.297L611.312 160.765Z"/>
<path fill="#FBFBFB" d="M611.264 168.297L618.724 168.286L618.732 175.768L611.276 175.748L611.264 168.297Z"/>
<path d="M596.287 175.769L603.737 175.756L603.712 183.303L596.268 183.287L596.287 175.769Z"/>
<path d="M626.288 160.752L633.706 160.753L633.714 168.292L626.272 168.278L626.288 160.752Z"/>
<path d="M671.299 175.775L678.735 175.77L678.72 183.29L671.269 183.289L671.299 175.775Z"/>
<path d="M701.294 160.754L708.718 160.762L708.719 168.273L701.268 168.283L701.294 160.754Z"/>
<path fill="#FBFBFB" d="M751.418 187.62C765.016 188.965 760.167 208.889 756.037 216.512C735.375 254.658 697.139 279.856 662.988 304.85C656.561 309.554 648.31 322.318 642.274 324.514C638.355 324.354 634.672 323.108 633.48 318.903C633.304 318.267 633.211 317.611 633.205 316.951C633.085 309.016 651.411 292.891 658.905 287.405C689.005 265.372 729.031 239.776 743.412 203.706C745.848 197.596 740.488 190.479 751.418 187.62Z"/>
<path fill="#FBFBFB" d="M611.816 107.971C626.521 107.223 647.304 107.838 662.502 107.838L760.849 107.843L827.653 107.844L847.63 107.816C851.773 107.796 860.078 106.717 862.856 110.205C863.733 111.297 864.087 112.719 863.824 114.095C863.415 116.311 861.883 117.441 860.109 118.54C838.972 118.846 817.135 118.565 795.954 118.565L670.726 118.564L628.828 118.571C624.081 118.576 611.283 120.274 608.67 115.783C606.711 112.417 608.726 109.693 611.816 107.971Z"/>
<path fill="#FBFBFB" d="M621.601 377.383C636.398 376.291 654.723 377.15 669.74 377.155L755.58 377.16L818.047 377.158C827.661 377.157 837.396 376.971 846.99 377.122C853.45 377.224 855.438 382.814 850.183 387.494C846.453 387.976 832.745 387.688 828.483 387.685L783.346 387.657L626.296 387.773C619.106 387.812 615.551 382.745 621.601 377.383Z"/>
<path fill="#FBFBFB" d="M589.325 262.722C594.021 261.781 598.86 263.444 601.986 267.072C605.112 270.7 606.042 275.73 604.419 280.236C602.795 284.742 598.87 288.023 594.149 288.823C586.997 290.035 580.197 285.281 578.879 278.148C577.561 271.016 582.213 264.146 589.325 262.722Z"/>
<path fill="#FBFBFB" d="M761.273 160.763L768.744 160.752L768.738 168.273L761.265 168.286L761.273 160.763Z"/>
</svg>

