<svg xmlns="http://www.w3.org/2000/svg" viewBox="0 0 50 50" width="50mm" height="50mm" clip-rule="evenodd" fill-rule="evenodd" image-rendering="optimizeQuality" shape-rendering="geometricPrecision">
  <defs>
    <linearGradient id="bDr-fire" gradientUnits="userSpaceOnUse" x1="11" x2="43" y1="14" y2="44">
      <stop offset="0"   stop-color="#fca5a5"/>
      <stop offset="0.5" stop-color="#ef4444" stop-opacity="0.75"/>
      <stop offset="1"   stop-color="#dc2626" stop-opacity="0"/>
    </linearGradient>
    <linearGradient id="bDr-claw" gradientUnits="userSpaceOnUse" x1="18" y1="20" x2="32" y2="34">
      <stop offset="0" stop-color="#fca5a5" stop-opacity="0.8"/>
      <stop offset="1" stop-color="#ef4444" stop-opacity="0.1"/>
    </linearGradient>
    <linearGradient id="bDr-claw2" gradientUnits="userSpaceOnUse" x1="32" y1="20" x2="18" y2="34">
      <stop offset="0" stop-color="#fca5a5" stop-opacity="0.75"/>
      <stop offset="1" stop-color="#ef4444" stop-opacity="0.08"/>
    </linearGradient>
  </defs>
  <!-- Crown spike -->
  <path d="M23.4,5.825 L25,2.4 L26.6,5.825 Z" fill="#991b1b"/>
  <circle cx="25" cy="1.9" r="1.0" fill="#fca5a5" opacity="0.7"/>
  <circle cx="25" cy="1.9" r="0.42" fill="#fee2e2"/>
  <!-- Crenel teeth -->
  <path d="M17.95,9.22 L19.5,6.4 L21.05,9.22 Z" fill="#991b1b" opacity="0.9"/>
  <path d="M28.95,9.22 L30.5,6.4 L32.05,9.22 Z" fill="#991b1b" opacity="0.9"/>
  <!-- Rook dark outline (Merida  identical for white and black) -->
  <path d="M28.408 9.22h4.216V5.825h6.799v9.296l-5.503 4.242v11.862l4.216 4.216v5.08h3.793v5.927H8.071V40.52h3.793v-5.08l4.242-4.216V19.363l-5.504-4.242V5.825h6.774V9.22h4.242V5.825h6.79z" fill="#1f1a17"/>
  <!-- Black rook highlight paths with dragon-fire gradient -->
  <path d="M25.013 35.043h-10.27L13.6 36.11v1.44h22.826v-1.44l-1.143-1.067zM13.6 40.123v2.532h22.826v-2.532zM25.013 13.04h-12.7v1.142l1.812 1.364h21.801l1.761-1.364V13.04zm0 4.19h-8.679l1.482 1.169v1.414h14.393v-1.414l1.482-1.168zm0 13.547h-7.197v1.143l-1.482 1.44h17.357l-1.482-1.44v-1.143z" fill="url(#bDr-fire)"/>
  <!-- Diagonal claw marks -->
  <line x1="18.2" y1="20.0" x2="28.5" y2="33.8" stroke="url(#bDr-claw)"  stroke-width="0.9"  stroke-linecap="round"/>
  <line x1="22.0" y1="20.0" x2="32.3" y2="33.8" stroke="url(#bDr-claw)"  stroke-width="0.75" stroke-linecap="round" opacity="0.5"/>
  <line x1="31.8" y1="20.0" x2="21.5" y2="33.8" stroke="url(#bDr-claw2)" stroke-width="0.9"  stroke-linecap="round" opacity="0.65"/>
  <!-- Dragon eye -->
  <ellipse cx="25" cy="27.2" rx="2.8" ry="1.9" fill="#991b1b"/>
  <ellipse cx="25" cy="27.2" rx="1.0"  ry="1.7" fill="#1f1a17"/>
  <circle  cx="25.7" cy="26.6" r="0.4"  fill="#fca5a5"/>
</svg>
