<svg xmlns="http://www.w3.org/2000/svg" viewBox="0 0 50 50" width="50mm" height="50mm" clip-rule="evenodd" fill-rule="evenodd" image-rendering="optimizeQuality" shape-rendering="geometricPrecision">
  <defs>
    <linearGradient id="bDr-body" gradientUnits="userSpaceOnUse" x1="21.192" x2="77.736" y1="37.552" y2="37.429">
      <stop offset="0" stop-color="#fff"/>
      <stop offset="1" stop-color="#fff" stop-opacity="0"/>
    </linearGradient>
    <linearGradient id="bDr-spark" x1="0.5" y1="0" x2="0.5" y2="1">
      <stop offset="0" stop-color="#f59e0b"/>
      <stop offset="0.5" stop-color="#d97706"/>
      <stop offset="1" stop-color="#92400e"/>
    </linearGradient>
  </defs>

  <!-- Diagonal corner sparks — indicating added diagonal movement (Dragon King) -->
  <!-- NW spark -->
  <path d="M9.5,8 L7,5 L5.5,7.5 L8,9 Z" fill="url(#bDr-spark)" opacity="0.9"/>
  <path d="M7.5,4.5 L9,7 L6.5,6.5 Z" fill="#fde68a" opacity="0.6"/>
  <!-- NE spark -->
  <path d="M40.5,8 L43,5 L44.5,7.5 L42,9 Z" fill="url(#bDr-spark)" opacity="0.9"/>
  <path d="M42.5,4.5 L41,7 L43.5,6.5 Z" fill="#fde68a" opacity="0.6"/>
  <!-- SW spark -->
  <path d="M9.5,42 L7,45 L5.5,42.5 L8,41 Z" fill="url(#bDr-spark)" opacity="0.9"/>
  <path d="M7.5,45.5 L9,43 L6.5,43.5 Z" fill="#fde68a" opacity="0.6"/>
  <!-- SE spark -->
  <path d="M40.5,42 L43,45 L44.5,42.5 L42,41 Z" fill="url(#bDr-spark)" opacity="0.9"/>
  <path d="M42.5,45.5 L41,43 L43.5,43.5 Z" fill="#fde68a" opacity="0.6"/>

  <!-- Small amber ember above centre battlement -->
  <circle cx="25" cy="7" r="1.8" fill="#d97706" opacity="0.5"/>
  <circle cx="25" cy="7" r="0.8" fill="#fef3c7" opacity="0.65"/>

  <!-- Black rook body — dark outline -->
  <path d="M28.408 9.22h4.216V5.825h6.799v9.296l-5.503 4.242v11.862l4.216 4.216v5.08h3.793v5.927H8.071V40.52h3.793v-5.08l4.242-4.216V19.363l-5.504-4.242V5.825h6.774V9.22h4.242V5.825h6.79z" fill="#1f1a17"/>
  <!-- Black rook body — white highlight details -->
  <path d="M25.013 35.043h-10.27L13.6 36.11v1.44h22.826v-1.44l-1.143-1.067zM13.6 40.123v2.532h22.826v-2.532zM25.013 13.04h-12.7v1.142l1.812 1.364h21.801l1.761-1.364V13.04zm0 4.19h-8.679l1.482 1.169v1.414h14.393v-1.414l1.482-1.168zm0 13.547h-7.197v1.143l-1.482 1.44h17.357l-1.482-1.44v-1.143z" fill="url(#bDr-body)"/>

  <!-- Amber glow dot above centre battlement -->
  <circle cx="25" cy="5.3" r="1.1" fill="#b45309" opacity="0.9"/>
  <circle cx="25" cy="5.3" r="0.45" fill="#fef3c7"/>
</svg>
