<?xml version="1.0" encoding="utf-8" ?><svg xmlns="http://www.w3.org/2000/svg" xmlns:xlink="http://www.w3.org/1999/xlink" width="960" height="480" viewBox="0 0 960 480"><path d="M611.158 52.0932C624.545 51.1503 639.046 52.427 652.482 51.8757C666.853 51.286 664.083 62.7122 663.889 73.1517C676.104 73.4112 688.957 73.2285 701.221 73.2411C701.288 67.672 699.985 58.441 703.716 54.0269C705.081 52.4119 711.256 51.8691 713.539 51.881C729.632 51.9649 745.807 51.5544 761.885 52.0966C773.249 52.3932 770.749 64.8047 770.61 73.1398C782.782 73.4313 795.761 73.2213 807.993 73.2252C807.929 69.8924 807.883 66.5593 807.856 63.2261C807.859 59.9563 808.241 56.092 810.791 53.7203C813.83 50.8948 849.916 51.6364 856.146 51.961C858.924 52.1058 862.501 52.2507 864.43 54.4813C865.587 55.819 866.225 57.3543 866.452 59.1044C867.4 66.3836 866.683 74.6716 866.688 82.0475C866.695 91.8785 867.305 102.16 866.553 111.945C866.422 113.647 866.33 115.681 865.415 117.166C862.645 121.66 840.45 138.705 834.636 143.677C834.075 184.214 834.594 226.293 834.597 266.95L834.545 297.88C834.536 300.949 834.289 313.52 835.056 315.812C836.82 321.079 843.756 331.52 846.872 336.588C849.981 337.374 855.168 338.956 855.471 342.767C856.419 354.685 855.973 367.653 855.927 379.615C862.505 379.819 879.814 378.272 885.126 381.67C886.933 383.265 888.19 388.872 887.968 390.907C887.284 397.202 889.834 420.871 885.803 425.016C884.516 426.348 882.85 427.251 881.031 427.602C878.3 428.102 864.877 427.89 861.419 427.887L818.672 427.85L665.205 427.856L616.951 427.866C573.728 427.902 585.941 429.641 583.976 389.941C583.247 375.213 606.086 379.626 615.94 379.733L615.994 342.929C608.265 342.283 605.056 339.169 602.845 331.768C580.469 334.053 562.479 331.557 555.002 306.271C551.976 296.038 550.44 280.506 554.029 270.245C562.729 245.372 576.026 221.446 588.735 198.335C586.468 198.413 583.569 198.239 581.255 198.165L581.269 190.947L573.776 190.813L573.759 183.527C571.473 183.53 568.572 183.276 566.243 183.139L566.269 175.951L558.782 175.821L558.845 145.826C578.429 145.349 600.159 145.775 619.878 145.784C622.633 142.53 625.298 139.201 627.871 135.801C620.946 130.139 613.042 124.237 606.882 117.758C605.277 116.07 605.255 111.16 605.246 108.768C605.198 96.2093 605.236 83.6232 605.242 71.0628C605.252 66.5215 605.005 61.3102 605.7 56.8509C607.51 54.0887 608.121 53.3652 611.158 52.0932Z"/><path fill="#FBFBFB" d="M566.258 153.288L695.246 153.292C717.045 153.292 739.511 153.005 761.263 153.314L761.273 160.763L716.288 160.77L716.275 175.748L708.744 175.755L708.741 183.302L701.297 183.302L701.257 190.765L663.725 190.772L663.724 183.294L656.263 183.289L656.262 175.768L648.73 175.738L648.719 160.76L641.29 160.753L641.267 175.757L633.759 175.755L633.734 183.302L626.299 183.283L626.252 190.769L588.731 190.75L588.705 183.32L581.255 183.283L581.271 175.764L573.727 175.751L573.726 168.29L566.272 168.283L566.258 153.288Z"/><path d="M686.29 160.753L693.714 160.756L693.723 168.287L701.268 168.283L701.27 175.766L693.734 175.772L693.711 183.286L686.259 183.287L686.279 175.763L678.735 175.77L678.761 168.286L686.273 168.283L686.29 160.753Z"/><path d="M678.761 168.286L686.273 168.283L686.279 175.763L678.735 175.77L678.761 168.286Z"/><path d="M686.279 175.763L693.734 175.772L693.711 183.286L686.259 183.287L686.279 175.763Z"/><path d="M686.29 160.753L693.714 160.756L693.723 168.287L686.273 168.283L686.29 160.753Z"/><path fill="#FBFBFB" d="M686.273 168.283L693.723 168.287L693.734 175.772L686.279 175.763L686.273 168.283Z"/><path d="M611.312 160.765L618.748 160.758L618.724 168.286L626.272 168.278L626.265 175.768L618.732 175.768L618.722 183.291L611.271 183.285L611.276 175.748L603.737 175.756L603.753 168.298L611.264 168.297L611.312 160.765Z"/><path d="M611.276 175.748L618.732 175.768L618.722 183.291L611.271 183.285L611.276 175.748Z"/><path d="M611.264 168.297L611.276 175.748L603.737 175.756L603.753 168.298L611.264 168.297Z"/><path d="M611.312 160.765L618.748 160.758L618.724 168.286L611.264 168.297L611.312 160.765Z"/><path fill="#FBFBFB" d="M611.264 168.297L618.724 168.286L618.732 175.768L611.276 175.748L611.264 168.297Z"/><path d="M596.287 175.769L603.737 175.756L603.712 183.303L596.268 183.287L596.287 175.769Z"/><path d="M626.288 160.752L633.706 160.753L633.714 168.292L626.272 168.278L626.288 160.752Z"/><path d="M671.299 175.775L678.735 175.77L678.72 183.29L671.269 183.289L671.299 175.775Z"/><path d="M701.294 160.754L708.718 160.762L708.719 168.273L701.268 168.283L701.294 160.754Z"/><path fill="#FBFBFB" d="M751.418 187.62C765.016 188.965 760.167 208.889 756.037 216.512C735.375 254.658 697.139 279.856 662.988 304.85C656.561 309.554 648.31 322.318 642.274 324.514C638.355 324.354 634.672 323.108 633.48 318.903C633.304 318.267 633.211 317.611 633.205 316.951C633.085 309.016 651.411 292.891 658.905 287.405C689.005 265.372 729.031 239.776 743.412 203.706C745.848 197.596 740.488 190.479 751.418 187.62Z"/><path fill="#FBFBFB" d="M611.816 107.971C626.521 107.223 647.304 107.838 662.502 107.838L760.849 107.843L827.653 107.844L847.63 107.816C851.773 107.796 860.078 106.717 862.856 110.205C863.733 111.297 864.087 112.719 863.824 114.095C863.415 116.311 861.883 117.441 860.109 118.54C838.972 118.846 817.135 118.565 795.954 118.565L670.726 118.564L628.828 118.571C624.081 118.576 611.283 120.274 608.67 115.783C606.711 112.417 608.726 109.693 611.816 107.971Z"/><path fill="#FBFBFB" d="M621.601 377.383C636.398 376.291 654.723 377.15 669.74 377.155L755.58 377.16L818.047 377.158C827.661 377.157 837.396 376.971 846.99 377.122C853.45 377.224 855.438 382.814 850.183 387.494C846.453 387.976 832.745 387.688 828.483 387.685L783.346 387.657L626.296 387.773C619.106 387.812 615.551 382.745 621.601 377.383Z"/><path fill="#FBFBFB" d="M589.325 262.722C594.021 261.781 598.86 263.444 601.986 267.072C605.112 270.7 606.042 275.73 604.419 280.236C602.795 284.742 598.87 288.023 594.149 288.823C586.997 290.035 580.197 285.281 578.879 278.148C577.561 271.016 582.213 264.146 589.325 262.722Z"/><path fill="#FBFBFB" d="M761.273 160.763L768.744 160.752L768.738 168.273L761.265 168.286L761.273 160.763Z"/><path d="M131.154 52.0946C144.538 51.1464 159.049 52.434 172.484 51.8762C186.856 51.2794 184.081 62.7285 183.881 73.1564C196.108 73.4098 208.95 73.232 221.224 73.2466C221.197 67.9513 220.211 57.9001 223.588 54.1653C225.139 52.4495 230.515 51.9036 232.88 51.8957C243.229 51.9981 252.945 51.6291 263.367 51.8539C268.829 51.9716 283.77 50.811 288.07 54.0654C291.681 56.7976 290.69 68.3016 290.607 73.1422C302.779 73.4361 315.766 73.2274 327.998 73.2354C327.934 67.3694 326.806 58.5593 330.285 54.0261C336.682 50.287 354.515 52.3948 362.668 51.8635C367.611 51.5414 374.721 51.9523 379.658 52.1298C384.351 52.2984 387.1 57.8679 386.712 61.9987C386.502 78.7376 386.683 95.4865 386.667 112.221C386.663 115.802 384.703 118.366 382.345 120.849C373.378 130.289 363.369 139.092 354.607 148.7L354.607 269.306L354.553 296.972C354.533 300.492 354.239 313.299 355.057 315.8C356.729 320.913 363.816 331.619 366.878 336.597C369.987 337.377 375.168 338.957 375.472 342.766C376.42 354.68 375.976 367.644 375.933 379.602C405.156 380.482 408.514 372.745 408.006 404.682C407.585 431.202 408.435 427.903 382.342 427.883L342.891 427.844L186.492 427.846L136.772 427.866C132.333 427.867 108.974 429.134 106.304 425.532C101.807 418.161 104.737 405.945 103.991 397.458C103.647 393.555 103.302 384.598 106.322 382.352C112.492 377.764 127.934 379.675 135.933 379.665L135.998 342.923C128.261 342.265 125.061 339.19 122.85 331.766C104.276 333.508 88.3942 333.391 78.5119 315.003C73.7823 306.202 70.2283 286.09 72.5253 276.495C78.0813 253.288 91.6128 231.191 102.329 210.008C104.423 205.896 111.208 194.782 112.222 191.519L111.851 190.904L109.195 190.807C108.529 189.774 108.776 185.127 108.768 183.516C106.612 183.572 103.465 183.284 101.239 183.148L101.252 176.02L93.7786 175.827L93.7262 168.635C91.3237 168.544 88.6733 168.323 86.2538 168.167L86.2854 153.303C102.226 153.106 118.547 153.288 134.519 153.288C137.451 147.865 142.519 142.664 146.521 137.71C142.206 133.48 125.416 118.847 125.397 113.463C125.372 106.341 124.851 95.7736 125.215 88.4033C125.687 78.8472 124.302 65.8248 125.699 56.8523C127.509 54.0922 128.119 53.3661 131.154 52.0946Z"/><path fill="#FBFBFB" d="M152.704 121.343L359.184 121.331C352.431 128.413 345.428 134.807 338.673 141.712C338.231 161.436 338.546 182.21 338.546 201.996L338.529 310.386L176.771 310.35C180.193 306.643 185.036 302.51 189.217 299.705C211.544 284.725 231.744 269.202 250.769 250.151C263.721 236.825 282.508 215.592 280.034 195.54C279.47 190.973 275.357 186.61 270.346 187.92C261.864 190.137 264.834 198.426 263.075 204.916C262.156 208.37 260.453 211.64 258.672 214.755C243.728 238.532 219.263 258.006 197.027 274.646C187.158 281.921 176.412 288.264 167.532 296.788C161.168 302.898 156.07 310.117 150.737 317.081C148.215 320.374 144.967 324.774 140.915 326.05C140.113 326.303 140.162 326.134 139.487 325.719C138.648 322.141 145.55 312.512 146.022 307.116C147.44 295.199 132.006 290.507 124.18 297.64C119.588 301.825 120.636 309.908 120.573 315.638C114.127 316.925 105.165 317.611 99.2187 314.381C94.2731 311.694 91.8508 306.699 90.3502 301.511C88.4449 294.924 87.1983 286.378 88.3059 279.571C91.5295 259.756 120.444 210.235 131.253 190.76L146.28 190.776L146.277 183.276L153.737 183.316L153.745 175.791L161.272 175.769L161.279 160.763L168.753 160.777L168.741 175.778L176.259 175.792L176.258 183.281L183.746 183.3L183.737 190.776L221.273 190.759L221.266 183.288L228.741 183.29L228.738 175.789L236.261 175.764L236.277 160.76L281.266 160.76L281.268 153.299L154.68 153.27C159.576 147.095 162.937 142.44 166.974 135.635L152.704 121.343Z"/><path d="M281.266 160.76L288.746 160.764L288.738 168.273L281.248 168.288L281.266 160.76Z"/><path d="M109.248 262.719C113.955 261.745 118.821 263.389 121.973 267.018C125.125 270.646 126.072 275.694 124.449 280.219C122.826 284.743 118.887 288.038 114.147 288.837C107.005 290.04 100.214 285.301 98.8789 278.182C97.5435 271.063 102.155 264.186 109.248 262.719Z"/><path fill="#FBFBFB" d="M237.273 67.8933L274.607 67.9174C274.572 73.0442 273.573 83.3138 276.816 86.882C278.417 88.6433 283.926 89.2836 286.332 89.2891C296.486 89.2048 305.91 89.4545 316.152 89.3143C321.98 89.2346 336.989 90.3885 341.507 87.0252C344.952 84.4608 343.964 72.6135 343.934 67.9083L367.148 67.8879C368.526 67.8296 369.12 67.7113 370.389 68.3352C371.376 72.2266 370.622 99.4739 370.598 105.285L141.328 105.297L141.348 67.8956L167.88 67.9032C167.932 76.0202 165.572 83.9743 173.096 88.9255C184.833 90.1857 198.546 88.7643 210.484 89.2928C217.193 89.5898 224.693 89.3731 231.379 88.871C232.433 88.7918 234.244 87.4983 235.006 86.7296C238.463 82.8139 237.316 72.997 237.273 67.8933Z"/><path fill="#FBFBFB" d="M151.867 353.354C174.278 352.699 199.862 353.29 222.481 353.288L359.956 353.308L359.922 379.673C337.191 380.139 312.835 379.695 289.996 379.696L151.886 379.699L151.867 353.354Z"/><path fill="#FBFBFB" d="M119.967 395.714C149.928 395.295 181.034 395.7 211.082 395.699L391.901 395.699L391.901 411.665L119.93 411.659L119.967 395.714Z"/><path fill="#FBFBFB" d="M173.605 318.357L338.264 318.388C339.373 322.767 345.729 332.613 348.412 337.098L338.672 337.11L163.495 337.103C166.569 331.24 171.844 324.592 173.605 318.357Z"/><path fill="#FBFBFB" d="M131.289 160.772L138.751 160.77L138.75 168.274L146.257 168.28L146.26 175.761L138.74 175.77L138.742 183.288L131.259 183.268L131.264 175.761L123.742 175.778L123.757 168.304L131.258 168.286L131.289 160.772Z"/><path fill="#FBFBFB" d="M131.264 175.761L138.74 175.77L138.742 183.288L131.259 183.268L131.264 175.761Z"/><path fill="#FBFBFB" d="M123.757 168.304L131.258 168.286L131.264 175.761L123.742 175.778L123.757 168.304Z"/><path fill="#FBFBFB" d="M131.289 160.772L138.751 160.77L138.75 168.274L131.258 168.286L131.289 160.772Z"/><path d="M131.258 168.286L138.75 168.274L138.74 175.77L131.264 175.761L131.258 168.286Z"/><path fill="#FBFBFB" d="M206.284 160.772L213.745 160.776L213.747 168.287L221.264 168.268L221.254 175.752L213.73 175.773L213.742 183.285L206.263 183.273L206.265 175.78L198.741 175.766L198.744 168.309L206.262 168.275L206.284 160.772Z"/><path fill="#FBFBFB" d="M213.747 168.287L221.264 168.268L221.254 175.752L213.73 175.773L213.747 168.287Z"/><path fill="#FBFBFB" d="M206.284 160.772L213.745 160.776L213.747 168.287L206.262 168.275L206.284 160.772Z"/><path fill="#FBFBFB" d="M206.265 175.78L213.73 175.773L213.742 183.285L206.263 183.273L206.265 175.78Z"/><path d="M206.262 168.275L213.747 168.287L213.73 175.773L206.265 175.78L206.262 168.275Z"/><path fill="#FBFBFB" d="M116.277 175.765L123.742 175.778L123.736 183.282L116.266 183.282L116.277 175.765Z"/><path fill="#FBFBFB" d="M191.276 175.775L198.741 175.766L198.736 183.286L191.261 183.27L191.276 175.775Z"/><path fill="#FBFBFB" d="M221.279 160.762L228.749 160.774L228.74 168.266L221.264 168.268L221.279 160.762Z"/><path fill="#FBFBFB" d="M146.297 160.776L153.739 160.785L153.736 168.274L146.257 168.28L146.297 160.776Z"/></svg>