<svg xmlns="http://www.w3.org/2000/svg" viewBox="40 20 400 440" width="50mm" height="50mm" clip-rule="evenodd" fill-rule="evenodd">
<path d="M131.154 52.0946C144.538 51.1464 159.049 52.434 172.484 51.8762C186.856 51.2794 184.081 62.7285 183.881 73.1564C196.108 73.4098 208.95 73.232 221.224 73.2466C221.197 67.9513 220.211 57.9001 223.588 54.1653C225.139 52.4495 230.515 51.9036 232.88 51.8957C243.229 51.9981 252.945 51.6291 263.367 51.8539C268.829 51.9716 283.77 50.811 288.07 54.0654C291.681 56.7976 290.69 68.3016 290.607 73.1422C302.779 73.4361 315.766 73.2274 327.998 73.2354C327.934 67.3694 326.806 58.5593 330.285 54.0261C336.682 50.287 354.515 52.3948 362.668 51.8635C367.611 51.5414 374.721 51.9523 379.658 52.1298C384.351 52.2984 387.1 57.8679 386.712 61.9987C386.502 78.7376 386.683 95.4865 386.667 112.221C386.663 115.802 384.703 118.366 382.345 120.849C373.378 130.289 363.369 139.092 354.607 148.7L354.607 269.306L354.553 296.972C354.533 300.492 354.239 313.299 355.057 315.8C356.729 320.913 363.816 331.619 366.878 336.597C369.987 337.377 375.168 338.957 375.472 342.766C376.42 354.68 375.976 367.644 375.933 379.602C405.156 380.482 408.514 372.745 408.006 404.682C407.585 431.202 408.435 427.903 382.342 427.883L342.891 427.844L186.492 427.846L136.772 427.866C132.333 427.867 108.974 429.134 106.304 425.532C101.807 418.161 104.737 405.945 103.991 397.458C103.647 393.555 103.302 384.598 106.322 382.352C112.492 377.764 127.934 379.675 135.933 379.665L135.998 342.923C128.261 342.265 125.061 339.19 122.85 331.766C104.276 333.508 88.3942 333.391 78.5119 315.003C73.7823 306.202 70.2283 286.09 72.5253 276.495C78.0813 253.288 91.6128 231.191 102.329 210.008C104.423 205.896 111.208 194.782 112.222 191.519L111.851 190.904L109.195 190.807C108.529 189.774 108.776 185.127 108.768 183.516C106.612 183.572 103.465 183.284 101.239 183.148L101.252 176.02L93.7786 175.827L93.7262 168.635C91.3237 168.544 88.6733 168.323 86.2538 168.167L86.2854 153.303C102.226 153.106 118.547 153.288 134.519 153.288C137.451 147.865 142.519 142.664 146.521 137.71C142.206 133.48 125.416 118.847 125.397 113.463C125.372 106.341 124.851 95.7736 125.215 88.4033C125.687 78.8472 124.302 65.8248 125.699 56.8523C127.509 54.0922 128.119 53.3661 131.154 52.0946Z"/>
<path fill="#FBFBFB" d="M152.704 121.343L359.184 121.331C352.431 128.413 345.428 134.807 338.673 141.712C338.231 161.436 338.546 182.21 338.546 201.996L338.529 310.386L176.771 310.35C180.193 306.643 185.036 302.51 189.217 299.705C211.544 284.725 231.744 269.202 250.769 250.151C263.721 236.825 282.508 215.592 280.034 195.54C279.47 190.973 275.357 186.61 270.346 187.92C261.864 190.137 264.834 198.426 263.075 204.916C262.156 208.37 260.453 211.64 258.672 214.755C243.728 238.532 219.263 258.006 197.027 274.646C187.158 281.921 176.412 288.264 167.532 296.788C161.168 302.898 156.07 310.117 150.737 317.081C148.215 320.374 144.967 324.774 140.915 326.05C140.113 326.303 140.162 326.134 139.487 325.719C138.648 322.141 145.55 312.512 146.022 307.116C147.44 295.199 132.006 290.507 124.18 297.64C119.588 301.825 120.636 309.908 120.573 315.638C114.127 316.925 105.165 317.611 99.2187 314.381C94.2731 311.694 91.8508 306.699 90.3502 301.511C88.4449 294.924 87.1983 286.378 88.3059 279.571C91.5295 259.756 120.444 210.235 131.253 190.76L146.28 190.776L146.277 183.276L153.737 183.316L153.745 175.791L161.272 175.769L161.279 160.763L168.753 160.777L168.741 175.778L176.259 175.792L176.258 183.281L183.746 183.3L183.737 190.776L221.273 190.759L221.266 183.288L228.741 183.29L228.738 175.789L236.261 175.764L236.277 160.76L281.266 160.76L281.268 153.299L154.68 153.27C159.576 147.095 162.937 142.44 166.974 135.635L152.704 121.343Z"/>
<path d="M281.266 160.76L288.746 160.764L288.738 168.273L281.248 168.288L281.266 160.76Z"/>
<path d="M109.248 262.719C113.955 261.745 118.821 263.389 121.973 267.018C125.125 270.646 126.072 275.694 124.449 280.219C122.826 284.743 118.887 288.038 114.147 288.837C107.005 290.04 100.214 285.301 98.8789 278.182C97.5435 271.063 102.155 264.186 109.248 262.719Z"/>
<path fill="#FBFBFB" d="M237.273 67.8933L274.607 67.9174C274.572 73.0442 273.573 83.3138 276.816 86.882C278.417 88.6433 283.926 89.2836 286.332 89.2891C296.486 89.2048 305.91 89.4545 316.152 89.3143C321.98 89.2346 336.989 90.3885 341.507 87.0252C344.952 84.4608 343.964 72.6135 343.934 67.9083L367.148 67.8879C368.526 67.8296 369.12 67.7113 370.389 68.3352C371.376 72.2266 370.622 99.4739 370.598 105.285L141.328 105.297L141.348 67.8956L167.88 67.9032C167.932 76.0202 165.572 83.9743 173.096 88.9255C184.833 90.1857 198.546 88.7643 210.484 89.2928C217.193 89.5898 224.693 89.3731 231.379 88.871C232.433 88.7918 234.244 87.4983 235.006 86.7296C238.463 82.8139 237.316 72.997 237.273 67.8933Z"/>
<path fill="#FBFBFB" d="M151.867 353.354C174.278 352.699 199.862 353.29 222.481 353.288L359.956 353.308L359.922 379.673C337.191 380.139 312.835 379.695 289.996 379.696L151.886 379.699L151.867 353.354Z"/>
<path fill="#FBFBFB" d="M119.967 395.714C149.928 395.295 181.034 395.7 211.082 395.699L391.901 395.699L391.901 411.665L119.93 411.659L119.967 395.714Z"/>
<path fill="#FBFBFB" d="M173.605 318.357L338.264 318.388C339.373 322.767 345.729 332.613 348.412 337.098L338.672 337.11L163.495 337.103C166.569 331.24 171.844 324.592 173.605 318.357Z"/>
<path fill="#FBFBFB" d="M131.289 160.772L138.751 160.77L138.75 168.274L146.257 168.28L146.26 175.761L138.74 175.77L138.742 183.288L131.259 183.268L131.264 175.761L123.742 175.778L123.757 168.304L131.258 168.286L131.289 160.772Z"/>
<path fill="#FBFBFB" d="M131.264 175.761L138.74 175.77L138.742 183.288L131.259 183.268L131.264 175.761Z"/>
<path fill="#FBFBFB" d="M123.757 168.304L131.258 168.286L131.264 175.761L123.742 175.778L123.757 168.304Z"/>
<path fill="#FBFBFB" d="M131.289 160.772L138.751 160.77L138.75 168.274L131.258 168.286L131.289 160.772Z"/>
<path d="M131.258 168.286L138.75 168.274L138.74 175.77L131.264 175.761L131.258 168.286Z"/>
<path fill="#FBFBFB" d="M206.284 160.772L213.745 160.776L213.747 168.287L221.264 168.268L221.254 175.752L213.73 175.773L213.742 183.285L206.263 183.273L206.265 175.78L198.741 175.766L198.744 168.309L206.262 168.275L206.284 160.772Z"/>
<path fill="#FBFBFB" d="M213.747 168.287L221.264 168.268L221.254 175.752L213.73 175.773L213.747 168.287Z"/>
<path fill="#FBFBFB" d="M206.284 160.772L213.745 160.776L213.747 168.287L206.262 168.275L206.284 160.772Z"/>
<path fill="#FBFBFB" d="M206.265 175.78L213.73 175.773L213.742 183.285L206.263 183.273L206.265 175.78Z"/>
<path d="M206.262 168.275L213.747 168.287L213.73 175.773L206.265 175.78L206.262 168.275Z"/>
<path fill="#FBFBFB" d="M116.277 175.765L123.742 175.778L123.736 183.282L116.266 183.282L116.277 175.765Z"/>
<path fill="#FBFBFB" d="M191.276 175.775L198.741 175.766L198.736 183.286L191.261 183.27L191.276 175.775Z"/>
<path fill="#FBFBFB" d="M221.279 160.762L228.749 160.774L228.74 168.266L221.264 168.268L221.279 160.762Z"/>
<path fill="#FBFBFB" d="M146.297 160.776L153.739 160.785L153.736 168.274L146.257 168.28L146.297 160.776Z"/>
</svg>

