<?xml version="1.0" encoding="UTF-8"?>
<svg xmlns="http://www.w3.org/2000/svg" viewBox="0 0 50 50" width="177.17" height="177.17">
  <defs>
    <linearGradient id="wCa-bg" gradientUnits="userSpaceOnUse" x1="12" y1="47" x2="38" y2="26">
      <stop offset="0" stop-color="#c8cee0"/>
      <stop offset="1" stop-color="#eef2fa"/>
    </linearGradient>
    <linearGradient id="wCa-hm" gradientUnits="userSpaceOnUse" x1="14" y1="4" x2="36" y2="27">
      <stop offset="0" stop-color="#fde68a"/>
      <stop offset="0.5" stop-color="#f59e0b"/>
      <stop offset="1" stop-color="#92400e"/>
    </linearGradient>
    <radialGradient id="wCa-gl">
      <stop offset="0" stop-color="#fff" stop-opacity="0.8"/>
      <stop offset="1" stop-color="#fff" stop-opacity="0"/>
    </radialGradient>
  </defs>

  <!-- DARK OUTLINES -->
  <rect x="11" y="43" width="28" height="4" rx="2" fill="#1f1a17"/>
  <path d="M17 43 L16.5 39 C16 37 18 36 21 36 L29 36 C32 36 34 37 33.5 39 L33 43 Z" fill="#1f1a17"/>
  <ellipse cx="25" cy="32" rx="10.5" ry="5.5" fill="#1f1a17"/>
  <!-- Two-hump camel body (upper silhouette) -->
  <path d="M 14 27 C 12 23 12 15 16 10 C 17.5 7 20 6 22 8.5 C 23.5 11 24 14.5 25 16 C 26 14.5 26.5 11 28 8.5 C 30 6 32.5 7 34 10 C 38 15 38 23 36 27 Z" fill="#1f1a17"/>
  <!-- Camel head (left) -->
  <ellipse cx="11" cy="18" rx="5.5" ry="4" fill="#1f1a17"/>
  <ellipse cx="7.5" cy="21.5" rx="3.8" ry="2.8" fill="#1f1a17"/>
  <!-- Ear -->
  <polygon points="9.5,14 11.5,10 13.5,14" fill="#1f1a17"/>

  <!-- WHITE BODY FILLS -->
  <rect x="12" y="43.5" width="26" height="3" rx="1.5" fill="url(#wCa-bg)"/>
  <path d="M18 42.5 L17.5 39.5 C17.2 38 19 37 21 37 L29 37 C31 38 32.8 38 32.5 39.5 L32 42.5 Z" fill="url(#wCa-bg)"/>
  <ellipse cx="25" cy="32" rx="9" ry="4.2" fill="url(#wCa-bg)"/>
  <ellipse cx="11" cy="18" rx="4.3" ry="3.2" fill="url(#wCa-bg)"/>
  <ellipse cx="7.5" cy="21.5" rx="2.8" ry="2" fill="url(#wCa-bg)"/>
  <polygon points="10,14 11.5,11 13,14" fill="url(#wCa-bg)"/>

  <!-- AMBER HUMP FILL (slightly inset from outline) -->
  <path d="M 15.5 26.5 C 13.5 22.5 13.5 15.5 17 11 C 18.5 8.5 20.5 7.5 22 9.5 C 23.5 12 24 15 25 17 C 26 15 26.5 12 28 9.5 C 29.5 7.5 31.5 8.5 33 11 C 36.5 15.5 36.5 22.5 34.5 26.5 Z" fill="url(#wCa-hm)"/>

  <!-- GLOSS HIGHLIGHTS on humps -->
  <ellipse cx="20" cy="11" rx="2.5" ry="4" fill="url(#wCa-gl)" opacity="0.85"/>
  <ellipse cx="31.5" cy="12" rx="2.5" ry="4" fill="url(#wCa-gl)" opacity="0.65"/>

  <!-- EYE AND NOSTRIL -->
  <circle cx="9.5" cy="17.5" r="1.3" fill="#1f1a17"/>
  <circle cx="9.5" cy="17.5" r="0.6" fill="#fff" opacity="0.85"/>
  <circle cx="6" cy="22" r="0.9" fill="#92400e" opacity="0.5"/>
</svg>
