<svg xmlns="http://www.w3.org/2000/svg" viewBox="0 0 100 100" style="--edge:#9d794b"><defs><linearGradient id="body" x1="0" x2="1" y2=".35"><stop stop-color="#fffcec"/><stop offset=".42" stop-color="#f9e5b4"/><stop offset="1" stop-color="#c89b62"/></linearGradient><linearGradient id="gold" x1="0" x2="1" y2=".6"><stop stop-color="#fff0a4"/><stop offset=".45" stop-color="#e9b84f"/><stop offset="1" stop-color="#a86b2f"/></linearGradient></defs><ellipse cx="51" cy="89" rx="33" ry="7" fill="#12172c" opacity=".25"/><g stroke="#9d794b" stroke-width="2.8" stroke-linejoin="round" stroke-linecap="round" fill="url(#body)"><circle cx="50" cy="29" r="15"/><path d="M40 44h20l-3 14 8 14H35l8-14z"/><path d="M33 28q0-21 17-21t17 21l-9-4H42z" fill="#409c9c"/><path d="M44 9V3h12v6" fill="url(#gold)"/><path d="M33 45 23 51m44-6 10 6" stroke="url(#gold)" stroke-width="8"/><path d="M23 49Q4 49 10 70l16-9zM77 49q19 0 13 21L74 61z" fill="#cbecef" stroke="#47747f" stroke-width="2"/><path d="M40 48h20l-4 10H44z" fill="url(#gold)"/><rect x="31" y="68" width="38" height="8" rx="4" fill="url(#gold)"/><path d="M32 76h36l8 9q1 6-26 6t-26-6z"/><path d="M30 83q20 7 40 0" stroke="#fff5d8" stroke-width="2" fill="none"/></g><path d="M39 73h19" stroke="#fff" stroke-opacity=".45" stroke-width="2" stroke-linecap="round"/></svg>