<?xml version="1.0" encoding="UTF-8"?>
<svg xmlns="http://www.w3.org/2000/svg" viewBox="0 0 50 50" width="177.17" height="177.17">
  <defs>
    <linearGradient id="wPW-a" gradientTransform="matrix(1 0 0 .97324 0 1.243)" gradientUnits="userSpaceOnUse" x1="21.13" x2="77.764" y1="37.346" y2="37.469">
      <stop offset="0" stop-color="#fff"/><stop offset="1" stop-color="#fff" stop-opacity="0"/>
    </linearGradient>
  </defs>
  <!-- Outline — single Merida silhouette -->
  <path d="M25 46.448H11.606a13.139 13.139 0 0 1-.99-5.043c0-2.975.863-5.644 2.598-8.018 1.736-2.365 3.971-4.054 6.697-5.067a6.824 6.824 0 0 1-2.861-2.398c-.737-1.071-1.1-2.283-1.1-3.634 0-1.69.575-3.156 1.735-4.392 1.151-1.244 2.574-1.961 4.267-2.15-1.346-.981-2.015-2.283-2.015-3.89 0-1.351.491-2.513 1.482-3.477.982-.964 2.176-1.442 3.581-1.442 1.389 0 2.582.478 3.573 1.442.99.964 1.49 2.126 1.49 3.477 0 1.607-.669 2.909-2.015 3.89 1.693.189 3.116.906 4.267 2.15 1.16 1.236 1.736 2.703 1.736 4.392 0 1.351-.373 2.563-1.126 3.634a7.036 7.036 0 0 1-2.862 2.398c2.726 1.013 4.962 2.702 6.697 5.067 1.736 2.374 2.6 5.043 2.6 8.018 0 1.739-.322 3.42-.966 5.043z" fill="#1f1a17"/>
  <!-- Inner fill — Merida gradient -->
  <path d="M25 44.808h12.175a11.79 11.79 0 0 0 .525-3.403c0-2.513-.711-4.787-2.142-6.831-1.43-2.044-3.277-3.552-5.52-4.516-1.584-.62-1.643-.659-1.643-1.738 0-.849.559-1.475 1.668-1.879 1.533-1.046 2.303-2.43 2.303-4.153 0-1.244-.432-2.324-1.287-3.263-.864-.931-1.905-1.467-3.124-1.615-1-.083-1.49-.626-1.49-1.64 0-.453.178-.873.542-1.26.897-.676 1.346-1.558 1.346-2.654 0-.898-.339-1.673-1-2.315-.66-.643-1.447-.964-2.353-.964-.94 0-1.744.32-2.396.964a3.136 3.136 0 0 0-.974 2.315c0 1.08.44 1.961 1.338 2.653.364.355.542.775.542 1.261 0 1.014-.483 1.557-1.465 1.64a4.9 4.9 0 0 0-3.133 1.615c-.855.94-1.278 2.019-1.278 3.263 0 1.722.77 3.107 2.303 4.153 1.11.412 1.668 1.046 1.668 1.879 0 1.08-.068 1.118-1.668 1.738-2.244.964-4.081 2.472-5.503 4.516-1.423 2.044-2.134 4.318-2.134 6.831 0 1.195.178 2.324.525 3.403z" fill="url(#wPW-a)"/>
  <!-- === WAR PAWN ACCENTS === -->
  <!-- Blade from top of head -->
  <path d="M24.3 7 L25 1.5 L25.7 7 Z" fill="#e0e0e0" stroke="#1f1a17" stroke-width="0.5" stroke-linejoin="round"/>
  <line x1="25" y1="2" x2="25" y2="6.5" stroke="#fff" stroke-width="0.35" opacity="0.8"/>
  <!-- Gold crossguard -->
  <rect x="21.8" y="6.2" width="6.4" height="1.2" rx="0.4" fill="#f59e0b" stroke="#1f1a17" stroke-width="0.4" opacity="0.9"/>
  <!-- Gold double chevrons on body -->
  <path d="M20 38 L25 33.5 L30 38" fill="none" stroke="#f59e0b" stroke-width="1.4" stroke-linecap="round" stroke-linejoin="round" opacity="0.8"/>
  <path d="M21.5 34 L25 30 L28.5 34" fill="none" stroke="#f59e0b" stroke-width="1.3" stroke-linecap="round" stroke-linejoin="round" opacity="0.7"/>
  <!-- Speed lines L -->
  <line x1="10.5" y1="35" x2="13" y2="32.5" stroke="#3b82f6" stroke-width="0.8" stroke-linecap="round" opacity="0.55"/>
  <line x1="10" y1="38" x2="12.5" y2="35.5" stroke="#3b82f6" stroke-width="0.8" stroke-linecap="round" opacity="0.45"/>
  <line x1="9.5" y1="41" x2="12" y2="38.5" stroke="#3b82f6" stroke-width="0.8" stroke-linecap="round" opacity="0.35"/>
  <!-- Speed lines R -->
  <line x1="39.5" y1="35" x2="37" y2="32.5" stroke="#3b82f6" stroke-width="0.8" stroke-linecap="round" opacity="0.55"/>
  <line x1="40" y1="38" x2="37.5" y2="35.5" stroke="#3b82f6" stroke-width="0.8" stroke-linecap="round" opacity="0.45"/>
  <line x1="40.5" y1="41" x2="38" y2="38.5" stroke="#3b82f6" stroke-width="0.8" stroke-linecap="round" opacity="0.35"/>
  <!-- Red slash hints -->
  <line x1="21" y1="28" x2="22.5" y2="26.5" stroke="#ef4444" stroke-width="0.7" stroke-linecap="round" opacity="0.4"/>
  <line x1="27.5" y1="26.5" x2="29" y2="28" stroke="#ef4444" stroke-width="0.7" stroke-linecap="round" opacity="0.4"/>
</svg>
