<svg clip-rule="evenodd" fill-rule="evenodd" height="50mm" image-rendering="optimizeQuality" shape-rendering="geometricPrecision" viewBox="0 0 50 50" width="50mm" xmlns="http://www.w3.org/2000/svg">
  <defs>
    <linearGradient id="a" gradientUnits="userSpaceOnUse" x1="21.376" x2="77.641" y1="37.469" y2="37.469">
      <stop offset="0" stop-color="#fff"/>
      <stop offset="1" stop-color="#fff" stop-opacity="0"/>
    </linearGradient>
    <radialGradient id="bolt-glow" cx="25" cy="27.5" r="18" gradientUnits="userSpaceOnUse">
      <stop offset="0" stop-color="#fde047" stop-opacity="0.55"/>
      <stop offset="0.5" stop-color="#60a5fa" stop-opacity="0.3"/>
      <stop offset="1" stop-color="#3b82f6" stop-opacity="0"/>
    </radialGradient>
  </defs>

  <!-- Rook body outline (Merida white) -->
  <path d="M28.408 9.22h4.216V5.825h6.799v9.296l-5.503 4.242v11.862l4.216 4.216v5.08h3.793v5.927H8.071V40.52h3.793v-5.08l4.242-4.216V19.363l-5.504-4.242V5.825h6.774V9.22h4.242V5.825h6.79z" fill="#1f1a17"/>

  <!-- Rook white body fill -->
  <path d="M33.073 17.678l3.15-2.557h-22.42l3.175 2.557zm7.197 24.528H9.756v2.557H40.27zm-3.844-5.055H13.6v3.37h22.826zm-4.217-17.788H17.816v11.862h14.393zm5.504-5.927V7.51h-3.395v3.395h-7.646V7.51h-3.344v3.395h-7.62V7.51h-3.395v5.926zm-1.914 22.005l-2.548-2.531H16.8l-2.6 2.531z" fill="url(#a)"/>

  <!-- Lightning bolt glow aura -->
  <ellipse cx="25" cy="27.5" rx="18" ry="4" fill="url(#bolt-glow)"/>

  <!-- Railgun electric bolt horizontal through rook body -->
  <!-- Main lightning path: jagged zigzag left to right -->
  <path d="M3 27.5 L9 25 L14 29 L19 24.5 L24 28.5 L28 25.5 L33 29.5 L38 26 L43 28 L47 27.5" stroke="#fde047" stroke-width="2" fill="none" stroke-linecap="round" stroke-linejoin="round"/>
  <!-- Secondary thinner bolt (offset) -->
  <path d="M3 28 L8 26 L13 30 L18 25.5 L23 29 L27 26.5 L32 30 L37 27 L42 28.5 L47 27.5" stroke="#93c5fd" stroke-width="0.9" fill="none" stroke-linecap="round" stroke-linejoin="round" opacity="0.7"/>
  <!-- Core bright line -->
  <path d="M3 27.5 L47 27.5" stroke="#fff" stroke-width="0.5" fill="none" opacity="0.35" stroke-dasharray="2 3"/>

  <!-- Left entry flash -->
  <circle cx="3" cy="27.5" r="2.5" fill="#fde047" opacity="0.7"/>
  <circle cx="3" cy="27.5" r="1.2" fill="#fff" opacity="0.9"/>

  <!-- Right exit flash -->
  <circle cx="47" cy="27.5" r="3" fill="#fde047" opacity="0.65"/>
  <circle cx="47" cy="27.5" r="1.5" fill="#fff" opacity="0.85"/>

  <!-- Small crackling sparks -->
  <path d="M20 24 L21.5 27.5 L20 28.5" stroke="#fde047" stroke-width="0.7" fill="none" opacity="0.8"/>
  <path d="M30 27 L31 24" stroke="#93c5fd" stroke-width="0.7" fill="none" opacity="0.75"/>
  <path d="M14 28.5 L15 25" stroke="#fde047" stroke-width="0.6" fill="none" opacity="0.7"/>
</svg>
